<?xml version="1.0" ?><!DOCTYPE svg  PUBLIC '-//W3C//DTD SVG 1.1//EN'  'http://www.w3.org/Graphics/SVG/1.1/DTD/svg11.dtd'><svg height="2048px" style="shape-rendering:geometricPrecision; text-rendering:geometricPrecision; image-rendering:optimizeQuality; fill-rule:evenodd; clip-rule:evenodd" viewBox="0 0 2048 2048" width="2048px" xml:space="preserve" xmlns="http://www.w3.org/2000/svg" xmlns:xlink="http://www.w3.org/1999/xlink"><defs><style type="text/css">
   <![CDATA[
    .fil2 {fill:none}
    .fil0 {fill:#424242}
    .fil1 {fill:#424242;fill-rule:nonzero}
   ]]>
  </style></defs><g id="Layer_x0020_1"><path class="fil0" d="M288 1029.84c1.42677,31.441 14.3658,61.1327 36.7536,83.5182l608.358 608.359c23.4248,23.426 54.854,36.5044 87.9107,36.874l1.44095 0.00944883 0.132284 0 1.44095 -0.00944883c33.0567,-0.369685 64.4859,-13.448 87.9107,-36.874l608.358 -608.359c22.3878,-22.3855 35.3268,-52.0772 36.7536,-83.5182l0 -5.83583 -0.00944883 -1.57205 0 -0.0011811c-0.00590552,-0.523229 -0.0153543,-1.04528 -0.0283465,-1.56732l0 -0.00354331c-0.011811,-0.522048 -0.0283465,-1.04291 -0.0472441,-1.56378l-0.0011811 -0.00354331 -0.0661418 -1.56024 -0.0011811 -0.00590552c-0.0248032,-0.518504 -0.0519685,-1.03819 -0.0838583,-1.55551l-0.0011811 -0.00590552c-1.86024,-30.6733 -14.6091,-59.6091 -36.515,-81.5138l-51.0378 -51.039 -463.523 464.361c-4.34764,4.35591 -9.17127,8.22402 -14.3965,11.4756 -2.61614,1.62874 -3.6567,2.33386 -4.28977,2.73307l-84.4264 87.2835c-14.9032,15.052 -34.9772,23.7484 -56.1615,24.1122 -21.4382,0.367323 -42.2965,-7.61339 -57.5233,-22.8166l-398.814 -387.683c-15.2988,-14.8725 -24.0024,-35.1355 -24.3567,-56.4567 -0.354331,-21.3307 7.67481,-41.8607 22.5189,-57.2079l123.951 -128.146c14.9043,-15.0508 34.9772,-23.7484 56.1638,-24.1099 21.2339,-0.362599 41.7496,7.68544 57.0815,22.3914l0.298819 0.287008 0.138189 0.138189 217.395 211.328 386.466 -387.167 -317.841 -317.842c-23.4272,-23.4284 -54.8528,-36.5055 -87.9131,-36.8752l-1.44095 -0.00944883 -0.132284 0 -1.44095 0.00944883c-33.0603,0.369685 -64.4859,13.4469 -87.9131,36.8752l-608.356 608.358c-21.9059,21.9047 -34.6524,50.8418 -36.515,81.5138l-0.0011811 0.00590552c-0.0318898,0.517323 -0.0590552,1.03701 -0.0838583,1.55551l-0.0011811 0.00590552 -0.0661418 1.56024 -0.0011811 0.00354331 -0.0472441 1.56378 0 0.00354331c-0.0129921,0.523229 -0.022441,1.0441 -0.0283465,1.56732l0 0.0011811 -0.00944883 1.57205 0 5.83583z"/><path class="fil1" d="M611.297 971.657l123.569 -127.758 0.120473 -0.120473 -0.0011811 0c9.25158,-9.51969 21.5752,-14.4201 33.9709,-14.6303 12.3862,-0.212599 24.8445,4.26496 34.3855,13.4906l0.0578741 0.0555119 0.0625985 0.0625985 240.201 233.497 523.706 -524.657c9.43111,-9.44765 21.8646,-14.1839 34.2945,-14.1969 12.4075,-0.0153543 24.8221,4.67717 34.2473,14.0788l125.829 125.534 0.0625985 0 0.00590552 0.00590552 -0.0318898 0.0318898c9.42402,9.42048 14.1484,21.8398 14.1614,34.2544 0.0153543,12.4051 -4.67599,24.8209 -14.074,34.2425l0 0.0625985 -0.00590552 0.00590552 -0.0307087 -0.0307087 -578.73 579.778c-2.71181,2.71772 -5.62087,5.02323 -8.65867,6.91536 -1.95591,1.21654 -3.9874,2.28425 -6.0756,3.20197l-88.3524 91.3477 -0.119291 0.119291 0.0011811 0c-9.2504,9.51733 -21.5729,14.4189 -33.9709,14.6315 -12.385,0.212599 -24.8469,-4.26142 -34.389,-13.4906l-0.119291 -0.119291 0 0.0011811 -398.974 -387.841c-9.54686,-9.28111 -14.4602,-21.6248 -14.6669,-34.0429 -0.205512,-12.4016 4.27914,-24.8705 13.5248,-34.4292z"/></g><rect class="fil2" height="2048" width="2048"/></svg>